:SAMPLES-PER-SECOND 30
:FRAME-RANGE 1-2643
:FULLY-SPECIFIED
:DEGREES
909
root  44.9081 39.2032 -24.6594 -167.563 -4.10123 167.346
RightUpLeg  -35.9419 -27.7763 -5.75214
RightLeg  15.645 -11.0146 1.04459
RightFoot  6.47621 0.738047 -4.42013
RightToes  7.56698e-010 0 -3.6325e-017
Spine  29.7086 -0.356115 17.1903
Spine1  -4.59384 6.29896 -16.9099
HEad  -29.4121 -32.7053 5.44889
LeftShoulder1  1.50125 -0.635383 -30.2109
LeftArm  -10.9546 4.2004 -27.85
LeftForeArm  35.6321 -71.9771 -32.7921
LeftHand  0.237555 2.71491 -11.2575
RightShoulder  3.13741 23.5531 3.49854
RightArm  -46.144 27.1 0.562985
RightForeArm  -2.52781 28.103 6.20893
RightHand  0.417671 0.0860359 8.87919
LeftUpLeg  -22.4723 -0.41218 -5.7163
LeftLeg  11.5123 -9.36281 -2.78626
LeftFoot  -1.44342 1.08113 -12.3492
LeftToes  1.48244e-010 1.61973e-010 3.308e-011
910
root  46.1112 39.0731 -25.2231 -167.88 -9.59076 168.805
RightUpLeg  -38.9966 -37.3693 2.78016
RightLeg  20.3266 -4.5627 -0.818295
RightFoot  2.05574 0.627091 -5.21247
RightToes  7.56698e-010 0 -3.6325e-017
Spine  29.0198 -0.0133487 16.3907
Spine1  -3.60969 5.9878 -13.9439
HEad  -26.8887 -30.3332 3.23114
LeftShoulder1  1.33009 -0.180058 -30.0392
LeftArm  -10.9342 5.42542 -26.3248
LeftForeArm  34.3563 -71.4086 -31.6153
LeftHand  0.304523 2.26854 -12.0304
RightShoulder  6.86501 23.1696 19.1063
RightArm  -35.0988 19.9117 4.39886
RightForeArm  1.61813 39.7523 9.21919
RightHand  0.0978005 -1.63373 3.3451
LeftUpLeg  -23.314 2.41561 -5.70018
LeftLeg  16.1922 3.13501 1.31829
LeftFoot  -1.8666 0.818439 -9.72502
LeftToes  1.48244e-010 1.61973e-010 3.308e-011
911
root  47.2805 38.9574 -25.8137 -168.224 -14.8594 170.05
RightUpLeg  -39.081 -39.6668 5.88204
RightLeg  23.556 -6.27755 -3.21565
RightFoot  -1.52078 0.416428 -4.96042
RightToes  7.56698e-010 0 -3.6325e-017
Spine  28.4757 0.453898 15.3894
Spine1  -2.869 5.79916 -11.1505
HEad  -25.281 -27.1946 -0.630721
LeftShoulder1  1.20014 0.188031 -30.1244
LeftArm  -11.675 6.85062 -26.0618
LeftForeArm  30.9372 -69.5697 -28.2853
LeftHand  0.326325 1.93684 -11.5222
RightShoulder  8.64401 18.852 32.6394
RightArm  -19.0258 15.1357 9.00524
RightForeArm  -2.65757 43.2234 10.7001
RightHand  0.041222 -1.4361 1.4593
LeftUpLeg  -24.0705 4.87119 -5.74333
LeftLeg  22.1734 7.3259 3.59868
LeftFoot  -4.53723 0.395382 -6.19026
LeftToes  1.48244e-010 1.61973e-010 3.308e-011
912
root  48.3025 38.8851 -26.3164 -168.894 -20.1892 171.05
RightUpLeg  -37.476 -40.3701 6.8219
RightLeg  25.5211 -10.1741 -5.47997
RightFoot  -4.01598 0.276929 -4.74494
RightToes  7.56698e-010 0 -3.6325e-017
Spine  27.6101 0.530483 14.7194
Spine1  -1.50606 5.31117 -8.73712
HEad  -23.0886 -23.3875 -4.99165
LeftShoulder1  1.12288 0.396652 -30.0644
LeftArm  -13.0333 8.70396 -27.0157
LeftForeArm  31.1281 -68.9051 -27.0256
LeftHand  0.305734 1.83408 -10.4828
RightShoulder  8.99266 16.0733 39.7887
RightArm  -0.512231 9.60559 15.1619
RightForeArm  -7.38745 40.2669 9.93515
RightHand  0.144136 -1.46371 4.55528
LeftUpLeg  -24.0867 6.50674 -6.27162
LeftLeg  28.4595 7.26028 4.58326
LeftFoot  -8.4337 0.199422 -5.86391
LeftToes  1.48244e-010 1.61973e-010 3.308e-011
913
root  49.1735 38.8342 -26.7183 -169.439 -25.2519 171.95
RightUpLeg  -36.6896 -42.2629 8.46832
RightLeg  26.7482 -12.4983 -6.99136
RightFoot  -5.68143 0.183047 -4.47552
RightToes  7.56698e-010 0 -3.6325e-017
Spine  26.5475 0.467757 15.1926
Spine1  -0.0716738 5.12298 -7.80859
HEad  -20.9231 -20.5647 -7.90718
LeftShoulder1  1.07125 0.550946 -30.2038
LeftArm  -13.1191 9.33534 -28.3203
LeftForeArm  34.4659 -69.742 -27.9829
LeftHand  0.325753 1.49176 -10.0851
RightShoulder  9.44587 14.8515 44.9565
RightArm  14.8923 4.09784 19.2848
RightForeArm  -10.8356 38.647 9.592
RightHand  0.162144 -2.02651 6.0782
LeftUpLeg  -23.9119 8.57569 -7.18755
LeftLeg  34.8205 8.13848 6.39568
LeftFoot  -9.52703 0.153915 -6.11347
LeftToes  1.48244e-010 1.61973e-010 3.308e-011
